<?xml version="1.0" encoding="utf-8"?><!-- Uploaded to: SVG Repo, www.svgrepo.com, Generator: SVG Repo Mixer Tools -->
<svg fill="#000000" width="800px" height="800px" viewBox="0 0 24 24" id="information-chat" data-name="Flat Line" xmlns="http://www.w3.org/2000/svg" class="icon flat-line"><path id="secondary" d="M10.54,3.11A9,9,0,0,0,4,16.11l-.7,3.41A1,1,0,0,0,4.48,20.7L7.87,20h0A9,9,0,1,0,10.54,3.11Z" style="fill: rgb(44, 169, 188); stroke-width: 2;"></path><line id="primary-upstroke" x1="12.05" y1="8" x2="11.95" y2="8" style="fill: none; stroke: rgb(0, 0, 0); stroke-linecap: round; stroke-linejoin: round; stroke-width: 2.5;"></line><path id="primary" d="M12,13v3M10.54,3.11A9,9,0,0,0,4,16.11l-.7,3.41A1,1,0,0,0,4.48,20.7L7.87,20h0A9,9,0,1,0,10.54,3.11Z" style="fill: none; stroke: rgb(0, 0, 0); stroke-linecap: round; stroke-linejoin: round; stroke-width: 2;"></path></svg>