<?xml version="1.0" encoding="iso-8859-1"?>
<!-- Uploaded to: SVG Repo, www.svgrepo.com, Generator: SVG Repo Mixer Tools -->
<svg height="800px" width="800px" version="1.1" id="Layer_1" xmlns="http://www.w3.org/2000/svg" xmlns:xlink="http://www.w3.org/1999/xlink" 
	 viewBox="0 0 512.001 512.001" xml:space="preserve">
<path style="fill:#B06328;" d="M504,154.241L280,30c-14.637-8.087-32.403-8.087-47.04,0L8,154.241c-4.921,2.841-7.966,8.078-8,13.76
	l0,0c0.437,5.248,3.429,9.945,8,12.56l224,126.16c14.606,8.21,32.435,8.21,47.04,0l224.96-126.16c4.571-2.615,7.563-7.312,8-12.56
	l0,0C511.966,162.319,508.921,157.081,504,154.241z"/>
<path style="fill:#A35425;" d="M462.24,162.961l5.36-28.64l-27.6-15.36V200l-171.2,74.4c-8.139,3.539-17.381,3.539-25.52,0L0,168.64
	c0.634,5.014,3.601,9.433,8,11.92l224,126.16c14.606,8.21,32.435,8.21,47.04,0l224.96-126.16c4.399-2.486,7.366-6.906,8-11.92
	l-27.28,11.92c-8.003,3.747-17.527,0.297-21.275-7.705C462,169.77,461.577,166.303,462.24,162.961z"/>
<path style="fill:#FFCB5B;" d="M512,168.001c-0.437,5.248-3.429,9.945-8,12.56L280,306.721c-14.606,8.21-32.435,8.21-47.04,0
	L8,180.56c-4.571-2.615-7.563-7.312-8-12.56l0,0v321.36c0,12.503,10.136,22.64,22.64,22.64l0,0h466.721
	c12.503,0,22.64-10.136,22.64-22.64l0,0L512,168.001L512,168.001z"/>
<g>
	<path style="fill:#F7B84E;" d="M0,167.2v0.8c0,0,0-0.48,0-0.72l0,0V167.2z"/>
	<path style="fill:#F7B84E;" d="M512,168.001c-0.437,5.248-3.429,9.945-8,12.56L280,306.721c-14.606,8.21-32.435,8.21-47.04,0
		L8,180.56c-1.167-0.657-2.242-1.465-3.2-2.4c-0.537-0.68-1.019-1.402-1.44-2.16l-0.8-1.04c-0.553-0.938-1.009-1.929-1.36-2.96
		v-0.48c-0.498-0.944-0.899-1.936-1.2-2.96v-0.56l0,0v16c-0.011,5.528,2.832,10.67,7.52,13.6l223.04,139.36l2.56,1.6
		c14.283,8.772,22.956,24.359,22.88,41.12v51.76c0,26.819-21.741,48.56-48.56,48.56H72c-17.674,0-32,14.327-32,32h449.36
		c12.503,0,22.64-10.136,22.64-22.64l0,0L512,168.001L512,168.001z"/>
</g>
<path style="fill:#E9E9E9;" d="M360,0.001H96C82.745,0.001,72,10.746,72,24v192.48l160.48,90.32c14.606,8.21,32.435,8.21,47.04,0
	l160.48-90.32V80L360,0.001z"/>
<path style="fill:#DBDAD9;" d="M241.28,295.521L72,208v8.48l160.48,90.32c14.606,8.21,32.435,8.21,47.04,0l160.48-90.32V208
	l-169.28,87.521C261.489,300.303,250.511,300.303,241.28,295.521z"/>
<path style="fill:#595A66;" d="M200,64h112c4.418,0,8,3.582,8,8l0,0c0,4.418-3.582,8-8,8H200c-4.418,0-8-3.582-8-8l0,0
	C192,67.582,195.582,64,200,64z"/>
<g>
	<path style="fill:#9BA7AF;" d="M144,120.001h112c4.418,0,8,3.582,8,8l0,0c0,4.418-3.582,8-8,8H144c-4.418,0-8-3.582-8-8l0,0
		C136,123.582,139.582,120.001,144,120.001z"/>
	<path style="fill:#9BA7AF;" d="M144,200h168c4.418,0,8,3.582,8,8l0,0c0,4.418-3.582,8-8,8H144c-4.418,0-8-3.582-8-8l0,0
		C136,203.582,139.582,200,144,200z"/>
	<path style="fill:#9BA7AF;" d="M144,160.001h72c4.418,0,8,3.582,8,8l0,0c0,4.418-3.582,8-8,8h-72c-4.418,0-8-3.582-8-8l0,0
		C136,163.583,139.582,160.001,144,160.001z"/>
	<path style="fill:#9BA7AF;" d="M328,160.001h56c4.418,0,8,3.582,8,8l0,0c0,4.418-3.582,8-8,8h-56c-4.418,0-8-3.582-8-8l0,0
		C320,163.583,323.582,160.001,328,160.001z"/>
	<path style="fill:#9BA7AF;" d="M248.001,160.001h48c4.418,0,8,3.582,8,8l0,0c0,4.418-3.582,8-8,8h-48c-4.418,0-8-3.582-8-8l0,0
		C240.001,163.583,243.582,160.001,248.001,160.001z"/>
	<path style="fill:#9BA7AF;" d="M288,120.001h96c4.418,0,8,3.582,8,8l0,0c0,4.418-3.582,8-8,8h-96c-4.418,0-8-3.582-8-8l0,0
		C280,123.582,283.581,120.001,288,120.001z"/>
</g>
<path style="fill:#CAD1D8;" d="M384,80.001h56L360,0.001v56C360,69.256,370.745,80.001,384,80.001z"/>
<polygon style="fill:#DDDDDC;" points="440,80.001 384,80.001 440,136.001 "/>
<path style="fill:#AFBABF;" d="M456,184c-2.126,0.013-4.171-0.822-5.68-2.32c-11.932-11.96-11.932-31.321,0-43.28l32-32
	c5.722-5.713,5.728-14.983,0.016-20.704c-0.005-0.005-0.01-0.01-0.016-0.016c-2.874-3.356-2.483-8.406,0.872-11.28
	c2.995-2.565,7.413-2.565,10.407,0c11.932,11.96,11.932,31.321,0,43.28l-32,32c-5.722,5.713-5.728,14.983-0.016,20.704
	c0.005,0.005,0.01,0.01,0.016,0.016c3.093,3.155,3.044,8.22-0.112,11.313C460.021,183.153,458.056,183.972,456,184z"/>
<path style="fill:#35363E;" d="M304,216c-4.418,0.011-8.009-3.561-8.021-7.979c-0.002-0.878,0.14-1.75,0.421-2.58l8-24
	c1.392-4.198,5.922-6.471,10.12-5.08c4.198,1.392,6.471,5.922,5.08,10.12l-2.96,8.8l8.8-2.96c4.198-1.392,8.728,0.883,10.12,5.08
	c1.392,4.198-0.883,8.728-5.08,10.12l0,0l-24,8C305.684,215.811,304.848,215.973,304,216z"/>
<path style="fill:#3689C9;" d="M317.681,149.681l44.72,44.72c3.12,3.102,8.16,3.102,11.28,0L488,80.001l-56-56L317.681,138.32
	c-3.137,3.111-3.157,8.176-0.046,11.314C317.649,149.65,317.665,149.665,317.681,149.681z"/>
<path style="fill:#1470B8;" d="M476.001,68.001l-93.68,93.68c-3.12,3.102-8.16,3.102-11.28,0l-11.52-11.52
	c-2.74-2.807-7.11-3.213-10.321-0.96c-2.96,2.96-5.76,5.52-14.8-3.521l-6.4-6.4c-2.74-2.807-7.11-3.213-10.321-0.96
	c-3.102,3.12-3.102,8.16,0,11.28l38.32,38.4l0,0l6.32,6.32c3.12,3.102,8.16,3.102,11.28,0L488,80.001L476.001,68.001z"/>
<g>
	<path style="fill:#595A66;" d="M432.001,24l56,56l12.4-12.4c15.245-15.553,15.245-40.446,0-56l0,0
		c-15.553-15.246-40.446-15.246-56,0L432.001,24z"/>
	<path style="fill:#595A66;" d="M301.681,181.681l28.72,28.72c3.12,3.102,8.16,3.102,11.28,0l18.32-18.4l-40-40l-18.321,18.32
		c-3.137,3.111-3.157,8.176-0.046,11.314C301.649,181.65,301.665,181.665,301.681,181.681z"/>
</g>
<path style="fill:#35363E;" d="M320,152.001L320,152.001c-4.418,4.392-4.44,11.534-0.048,15.952
	c0.016,0.016,0.031,0.032,0.048,0.048l16,16c4.418,4.137,4.646,11.073,0.508,15.492c-0.164,0.175-0.334,0.344-0.508,0.508l-8,8
	l2.32,2.32c3.12,3.102,8.16,3.102,11.28,0l18.4-18.32L320,152.001z"/>
<path style="fill:#4C9CD6;" d="M424.001,72c-4.418,0.026-8.021-3.535-8.047-7.953c-0.013-2.149,0.84-4.213,2.366-5.726l32-32
	c3.356-2.874,8.406-2.483,11.28,0.872c2.565,2.995,2.565,7.413,0,10.407l-32,32C428.123,71.108,426.11,71.971,424.001,72z"/>
<path style="fill:#6F707E;" d="M453.681,45.681l8-8c2.874-3.356,2.483-8.406-0.872-11.28c-2.995-2.565-7.413-2.565-10.407,0l-8,8
	L453.681,45.681z"/>
<path style="fill:#35363E;" d="M488,80.001l8-8c2.915-3.579,2.602-8.795-0.72-12c-3.12-3.102-8.16-3.102-11.28,0l-8,8L488,80.001z"
	/>
<path style="fill:#DBDAD9;" d="M373.68,194.321c-3.12,3.102-8.16,3.102-11.28,0l-2.4-2.32l0,0l-18.32,18.32
	c-3.12,3.102-8.16,3.102-11.28,0l-2.4-2.32l-21.76,7.28c-0.707,0.35-1.462,0.592-2.24,0.72h28.72
	c18.034-0.007,35.899-3.456,52.64-10.16l54.64-21.84v-56L373.68,194.321z"/>
</svg>