<?xml version="1.0" encoding="iso-8859-1"?>
<!-- Uploaded to: SVG Repo, www.svgrepo.com, Generator: SVG Repo Mixer Tools -->
<svg height="800px" width="800px" version="1.1" id="Layer_1" xmlns="http://www.w3.org/2000/svg" xmlns:xlink="http://www.w3.org/1999/xlink" 
	 viewBox="0 0 276.672 276.672" xml:space="preserve">
<g>
	<circle style="fill:#FFDB77;" cx="138.36" cy="138.361" r="33.804"/>
	<g>
		<path style="fill:#22313F;" d="M138.36,97.057c-22.775,0-41.304,18.529-41.304,41.304s18.528,41.304,41.304,41.304
			s41.304-18.529,41.304-41.304S161.135,97.057,138.36,97.057z M138.36,164.666c-14.504,0-26.304-11.8-26.304-26.304
			s11.8-26.304,26.304-26.304s26.304,11.8,26.304,26.304S152.864,164.666,138.36,164.666z"/>
		<path style="fill:#22313F;" d="M261.325,138.361C308.576,35.036,240.849-31.476,138.36,15.397
			C35.52-31.637-31.68,35.422,15.395,138.361C-32.308,242.674,37.037,307.666,138.36,261.326
			C240.631,308.099,308.616,241.773,261.325,138.361z M252.361,120.938c-22.202-38.829-57.704-74.351-96.578-96.578
			C236.355-6.081,282.432,41.355,252.361,120.938z M138.36,244.711c-42.942-21.507-84.132-61.99-106.349-106.35
			C53.515,95.425,93.992,54.232,138.36,32.012c42.942,21.507,84.132,61.989,106.349,106.35
			C223.202,181.304,182.72,222.494,138.36,244.711z M120.937,24.36c-38.83,22.202-74.351,57.704-96.578,96.578
			C-6.014,40.555,41.172-5.776,120.937,24.36z M24.359,155.785c22.202,38.83,57.705,74.351,96.578,96.578
			C41.061,282.541-5.965,236.036,24.359,155.785z M155.783,252.363c38.829-22.202,74.351-57.704,96.578-96.578
			C282.666,235.986,235.716,282.562,155.783,252.363z"/>
	</g>
</g>
</svg>